<svg width="27" height="36" viewBox="0 0 27 36" fill="none" xmlns="http://www.w3.org/2000/svg">
<path d="M13.0378 0C5.84874 0 0 5.84874 0 13.0378C0 21.9596 11.6676 35.0574 12.1644 35.6106C12.631 36.1303 13.4456 36.1293 13.9113 35.6106C14.4081 35.0574 26.0757 21.9596 26.0757 13.0378C26.0756 5.84874 20.2269 0 13.0378 0ZM13.0378 19.5975C9.42083 19.5975 6.47825 16.6548 6.47825 13.0378C6.47825 9.42076 9.4209 6.47818 13.0378 6.47818C16.6548 6.47818 19.5974 9.42083 19.5974 13.0379C19.5974 16.6549 16.6548 19.5975 13.0378 19.5975Z" fill="#0054AA"/>
</svg>
